<?xml version="1.0" encoding="UTF-8"?>
<svg id="Layer_1" data-name="Layer 1" xmlns="http://www.w3.org/2000/svg" viewBox="0 0 294.87 83.53">
  <defs>
    <style>
      .cls-1 {
        fill: #f7941d;
      }

      .cls-2 {
        fill: #f9ed32;
      }
    </style>
  </defs>
  <path class="cls-1" d="M.97,26.73c-2.5,10.2-.3,23.9,8.4,30,1.6,1.1,4,2.4,30.4,1.6,18.6-.6,23.2-1.4,32,.8,6.3,1.5,7.4,2.8,12.8,3.2,10.6,.8,14.8-3.5,22.4-2.4,4.3,.6,10.1,2.9,16.4,10.8-.7,.8-1.8,2.1-2,4-.4,3.3,1.8,6.9,5.6,8.8,7.5-.3,14.9-.5,22.4-.8-2.8-2-5.6-4-8.4-6-1.3-.9-2.8-2.3-2.8-4,0-2.6,3.4-3.8,3.2-6-.1-1.6-2.1-2.5-5.2-4-7.4-3.6-11.1-5.5-12.8-7.2-1.8-1.8-3.6-5.1-3.6-11.2,3.2,1.3,8.7,2.9,15.6,2.8,8.2-.2,14.3-2.7,17.6-4.4-3,0-5.5-1.6-6-3.6-.8-3,2.9-6.5,5.6-6.4,3.8,.2,3.5,7.1,8.8,9.2,3,1.2,7.2-.3,15.6-3.2,4.6-1.6,5.3-2.2,7.6-2.4,5-.4,9.2,2,12,4-1.1-3.7-3.2-9.3-8-14.4-1.9-2-10.1-10.9-20.8-10-5.2,.4-11.3,3.2-11.6,6.4-.2,2.2,2.4,3.1,2,4.8-.7,3.1-10.5,4.2-18.8,2.8-3.2-.6-11.6-2.2-16.4-8.8-1.1-1.6-2.8-3.9-2-6.4,1.1-3.5,6.1-4.4,6.4-4.4-12.9-.7-25.9-1.3-38.8-2-3.4,2.9-8.6,6.3-14.8,6-5.7-.2-8.9-3.4-14-6.4C51.17,2.93,39.47-.17,30.17,1.13,18.37,2.73,4.57,11.93,.97,26.73Z"/>
  <path class="cls-1" d="M281.27,68.43c3.4-.3,6.8-.5,10.1-.8,1.2-1.6,2.3-3.2,3.5-4.8-3.9,.2-7.8,.4-11.7,.5-.7,1.8-1.3,3.4-1.9,5.1Z"/>
  <path class="cls-1" d="M266.57,17.23c5.4-.1,10.8-.2,16.3-.3v5.6c-5.9-.5-11.7-1.1-17.6-1.6,.4-1.2,.8-2.4,1.3-3.7Z"/>
  <path class="cls-1" d="M233.27,37.23c-.7,.6-5.5,4.3-11.7,3.2-3.7-.7-6.2-2.7-7.2-3.7,.4-.4,4.3-4.8,10.4-4.3,5.1,.5,8,4.2,8.5,4.8Z"/>
  <path class="cls-1" d="M225.27,12.73c-1.9,2.3-5,5.3-9.6,7.2-.6,.3-11.4,4.5-14.9,0-.6-.7-1.5-2.4-.8-5.9-5.8-.7-11.6-1.4-17.3-2.1,1.2-1.1,3-2.6,5.3-4.3,2.6-1.9,14.2-10.1,18.1-6.9,.7,.5,1.5,1.7,1.3,4.5,5.9,2.5,11.9,5,17.9,7.5Z"/>
  <path class="cls-1" d="M180.47,48.73c4.9,2.3,8.2,6.8,8.3,11.5,0,6.7-6.7,13.3-15.7,13.1,.4,1.2,1.1,2.9,2.7,4.3,4.8,4.2,14.2,2,15.7-1.9,.7-1.8-.8-2.8,0-5.1,.9-2.5,3.4-2.5,5.9-5.1,.3-.3,3.6-3.7,3.5-7.5-.2-6.1-9.2-11.9-16.5-10.7-1.8,.3-3,.9-3.9,1.4Z"/>
  <path class="cls-2" d="M60.67,16.73c-1.8-5.5-7.1-8.4-8.8-9.3-5.6-3-10.9-2.6-16-2.1-4.4,.4-13.7,1.3-22.1,8.3C8.47,18.03,.67,27.23,3.37,33.33c.8,1.8,2.3,2.9,3.7,3.7,15.6,9.2,41.2,3,41.9,2.9-3.9,2.6-4.3,3.5-4.3,3.5-.7,1.5,.1,2.1-.5,3.7-.6,1.5-1.8,2.4-2.7,2.9-4.4,3-16.1,5.5-16.5,5.6,12.7,3.5,31.5,6.5,52.5,1.3,4-1,7.7-2.2,11.2-3.5-2.5,1.1-12.7,5.6-21.6,.8-5-2.7-9.8-8.4-8.5-11.2,.7-1.6,3.4-2,7.7-2.7,3.8-.6,7-.5,9.3-.3-1.3-1.4-3.4-3.6-6.1-6.1-4.9-4.4-6.5-5-7.7-7.7-1.8-3.8,.3-5.2-1.1-9.5Z"/>
</svg>