<?xml version="1.0" encoding="UTF-8"?>
<svg id="Layer_1" data-name="Layer 1" xmlns="http://www.w3.org/2000/svg" viewBox="0 0 308.92 78.73">
  <defs>
    <style>
      .cls-1 {
        fill: #f7941d;
      }

      .cls-2 {
        fill: #f9ed32;
      }
    </style>
  </defs>
  <path class="cls-1" d="M.12,39.5c-1.4,13.1,10,25,20.5,27.2,8.3,1.7,11.3-3.5,27.2-6.9,4.1-.9,15.8-3.3,28.5-1.6,21.2,2.9,23.3,14.6,41.6,14.7,12.3,.1,24.7-5.1,25.6-10.9,.3-2-.7-4.1,.3-8.3,.4-1.8,1.1-4.7,3.2-6.7,3-2.8,8.1-3,13.1-1.1-.6-.9-3.3-4.5-8.3-5.6-6.4-1.4-11.2,2.7-11.7,3.2-1.9,1.7-3,3.6-3.5,4.8-4.4,1.7-9.2,.6-12-2.7-2.4-2.8-3.3-7.2-1.6-10.1,2.5-4.5,10.2-4.3,18.7-4,13.3,.5,16.9,3.5,26.1,3.7,5.5,.1,13.5-.7,23.5-5.6-3.8-.2-9.2-1.1-13.6-4.8-5.3-4.4-4.3-8.5-8.8-13.3-7.9-8.5-21.8-7.2-24.8-6.9-11.3,1-18.9,7.2-21.6,9.6-14.8,1.2-29.5,2.5-44.3,3.7-4,2.3-10.2,5.1-17.9,4.8-7.2-.3-9.5-3-18.7-4.8-5.5-1.1-13.8-2.7-22.1,.3-1,.4-17.8,6.6-19.4,21.3Z"/>
  <path class="cls-1" d="M168.62,5.1c2-1.7,4.1-3.4,6.1-5.1,3.7,.7,7.5,1.4,11.2,2.1-2.1,1.7-4.3,3.4-6.4,5.1-3.6-.6-7.2-1.3-10.9-2.1Z"/>
  <path class="cls-1" d="M206.22,53.1c2.8,.9,5.5,1.8,8.3,2.7,3.8-1.2,7.6-2.3,11.5-3.5-1.8-1.2-3.6-2.3-5.3-3.5-4.9,1.5-9.7,2.9-14.5,4.3Z"/>
  <path class="cls-1" d="M237.22,71c.1,.3,.9,.7,5.1,.6,1.8,.6,3.7,1.2,5.5,1.8-.3,1.3-.5,2.7-.8,4,1.8,.7,4.7,1.5,8.3,1.3,7.2-.4,12-4.8,13.3-6.1-1.7-.6-4.4-1.6-7.5-2.9-3.4-1.5-4.2-2-5.3-2.4-7.9-3.2-18.9,2.3-18.6,3.7Z"/>
  <path class="cls-1" d="M256.12,17.7c-8.3,3.8-14.5,3.8-19.2,2.4-6.7-1.9-7.8-5.9-15.2-7.7-7.9-1.9-17.2,0-18.4,4-.9,2.9,3.1,4.9,2.9,8.3-.2,3.5-4.9,8-24.3,12.5,4.4,.6,8.7,1.2,13.1,1.9-.2,.5-1.5,3.2-.3,5.6,1.4,2.8,5.9,4.1,10.1,2.1-2.4-1.6-3.1-3.2-3.2-4.3-.7-5.7,10.9-14.2,22.1-13.9,6.7,.2,8.3,3.5,13.9,3.2,8.3-.4,14.6-8,18.5-14.1Z"/>
  <path class="cls-1" d="M308.92,12.3c-6.4,.9-10.7-.2-13.6-1.3-1.6-.7-2.6-1.3-4.5-1.9-4.3-1.2-8.2-.5-10.9,.3,1.3,1.2,2.7,2.5,4,3.7-4,2.2-8,4.4-12,6.7,7.8-.5,12.8-.8,12.8-.8h0c-.1,0,13.8-3.8,24.2-6.7Z"/>
  <path class="cls-2" d="M128.62,27.3c-5.8,.1-14.8,.8-25.3,4-12.9,4-15.2,7.9-24,7.7-10.3-.2-19.3-5.8-25.1-9.3-7.8-4.9-7.2-6.6-12.5-8.8-2.2-.9-17-6.8-27.7,2.4-6.4,5.4-10,15-7.2,24,.2,.7,3.6,11,12.8,13.9,11.3,3.5,22.4-7.1,25.6-10.1,1.9-1.8,3.3-3.5,4.3-4.8-.6,.1-7.4,.8-8-1.1-.6-1.8,4.4-4.8,4.8-5.1,8.5-5.1,20.7-1.1,28,2.1-6.2,3.7-12.4,7.5-18.7,11.2,4.7,1.3,11.8,2.3,18.9-.3,7.6-2.7,11.4-8.1,14.9-11.7,6.1-6.2,17.2-13,39.2-14.1Z"/>
</svg>