<?xml version="1.0" encoding="UTF-8"?>
<svg id="Layer_1" data-name="Layer 1" xmlns="http://www.w3.org/2000/svg" viewBox="0 0 250.11 84.6">
  <defs>
    <style>
      .cls-1 {
        fill: #f7941d;
      }

      .cls-2 {
        fill: #f9ed32;
      }
    </style>
  </defs>
  <path class="cls-1" d="M98.11,68.92c1.8,3.4-4.1,7.2-2.4,11.2,2.1,5,13.6,4.9,19.6,4,6.4-.9,11.3-3.3,14.4-5.2-.4-.3-2.6-1.9-2.4-4,0-.7,.3-1.6,2.8-3.6,1.4-1.1,3.5-2.7,6.4-4-4.9-2.2-10.2-3.8-12.4-1.6-1.2,1.2-.6,2.6-2,4-2.9,2.9-11.2,2.2-12.8-2-.9-2.4,.6-5.1,1.2-6-2.8-2-3.4-5.4-2-7.6,1.2-1.8,3.8-2.5,5.6-2,1.6,.4,1.9,1.5,3.6,2.4,1.3,.8,3.4,1.4,6.8,.8,1.5-.6,3.9-1.4,6.8-1.6,6.1-.5,9.3,1.6,14,2,3.4,.3,8.2-.2,14.4-4-2.2-1.9-2.6-3.2-2.4-4,.6-3.2,9-5.8,13.6-2.8,1.5,1,2.1,2.3,2.8,3.6,3.7,6.5,11.9,12.8,19.2,12.4,1.5-.1,6.2-.6,11.2-6.4-2.4-1.2-3.1-2.3-3.2-3.2-.3-2,2.2-3.2,4.4-6.8,1.3-2.1,2-4.2,2.4-5.6-.9-1.6-1.9-3.2-2.8-4.8-2.7-.8-5.3-1.6-8-2.4,2.7,2.4,2.9,4.3,2.8,5.2-.3,4.4-8.3,7.3-14,7.6-9.7,.5-16.2-6.5-17.2-7.6-.7-.8-8.7-9.8-5.2-14.8,1.4-2,4.2-2.9,7.5-2.8h0c-2.3-.4-3.7-1-4.5-1.4-.1-.1-.3-.1-.3-.1-2.2-1.2-3.6-2.6-4.4-3.6-2.3,0-19.3,.5-27.6,4.4-1.8,.8-5,2.4-5.6,5.2-.4,2,.8,3.1,0,4.4-1,1.8-4.1,1-8,1.6-5.7,.9-5.6,3.7-10,4.4-6.9,1.1-14-4.4-17.6-9.2-1.7-2.3-2.6-4.4-3.2-6,2-1.5,4-2.9,6-4.4,.4-1.7,1.7-8.4-2-12-2.1-2.1-5-2.3-7.2-2.4-5.4-.3-13.5-.4-24.4,.4-1.4,1.6-3.5,3.5-6.4,4.4-4.8,1.5-8.1-.9-10.4,1.2-2,1.9,0,4.3-2,7.2-2,2.8-6,3.3-12,4-3.7,.4-6,.3-7.2,.4C14.01,18.22-.39,30.92,0,45.82c.2,7.7,4.2,13.4,6.8,16.4,16.9,14.2,35.2,20,46.8,18,10.4-1.8,17.2-6,17.2-6,4.4-2.7,5.2-4.3,9.2-6,6.9-2.9,16.1-3,18.1,.7Zm-42-2c-9.7,8.8-26.9,7.7-38-.4-8.1-6-16.1-18-12.8-29.6,4.3-15,25.3-21.3,36.4-18,1,.3,4.4,1.4,9.6,2.8,11.6,3,14.2,2.5,15.2,1.2,.5-.7,.2-1,.4-4,.3-4.4,.5-6.8,1.6-8,2.9-3,14.5,.2,16.4,6.4,1.4,4.7-4,7-2.4,12.8,1.3,4.7,6.5,8.9,7.9,9.9,.5,.3,1,.7,1,.7,0,0,2.3,1.5,5.1,2.6,2.3,.9,9.1,2.5,18.4,2.8-.5,.7-4.7,6.2-10.8,6-3.6-.1-6.6-2.1-7.6-2.8-2-1.3-3.2-2.7-3.6-3.2-3.4-3.9-12.8-10.3-22.4-10-6.9,.2-15.4,4.1-15.6,8.8-.1,2.4,2.1,4.6,4,6,6,2.8,12,5.6,18,8.4-4.8-.8-9.6-1.6-14.4-2.4-1,3-2.9,6.8-6.4,10Z"/>
  <path class="cls-1" d="M18.11,66.52c-8.1-6-16.1-18-12.8-29.6,4.3-15,25.3-21.3,36.4-18,1,.3,4.4,1.4,9.6,2.8,11.6,3,14.2,2.5,15.2,1.2,.5-.7,.2-1,.4-4,.3-4.4,.5-6.8,1.6-8,2.9-3,14.5,.2,16.4,6.4,1.4,4.7-4,7-2.4,12.8,1.3,4.7,6.5,8.9,7.9,9.9,.5,.3,1,.7,1,.7,0,0,2.3,1.5,5.1,2.6,2.3,.9,9.1,2.5,18.4,2.8-.5,.7-4.7,6.2-10.8,6-3.6-.1-6.6-2.1-7.6-2.8-2-1.3-3.2-2.7-3.6-3.2-3.4-3.9-12.8-10.3-22.4-10-6.9,.2-15.4,4.1-15.6,8.8-.1,2.4,2.1,4.6,4,6,6,2.8,12,5.6,18,8.4-4.8-.8-9.6-1.6-14.4-2.4-1,3-2.9,6.8-6.4,10-9.7,8.8-26.9,7.7-38-.4Z"/>
  <path class="cls-1" d="M242.51,28.52c-7.7-.9-15.5-1.9-23.2-2.8,3.3-1.5,6.7-2.9,10-4.4-6.8-1.1-13.6-2.1-20.4-3.2,1.2-.9,6.3-4.5,12.4-3.2,1.6,.4,3,1,4,1.6,.8-1.1,2.7-3.2,5.6-4,5.5-1.6,12.3,2,12.4,5.2,0,.7-.2,2.1-3.2,4,3.3,1.3,6.7,2.7,10,4-2.5,.9-5.1,1.9-7.6,2.8Z"/>
  <path class="cls-1" d="M207.71,78.12c2.8-.9,5.6-1.9,8.4-2.8-2.1-1.9-4.3-3.9-6.4-5.8,2.6-.3,7.7-.4,13.2,2.2,2.6,1.2,4.6,2.7,6,4-2.9,.1-5.9,.3-8.8,.4,1.5,3,1.4,4.5,.8,5.2-1.6,1.9-7.5-.4-13.2-3.2Z"/>
  <path class="cls-2" d="M18.11,66.52c-8.1-6-16.1-18-12.8-29.6,4.3-15,25.3-21.3,36.4-18,1,.3,4.4,1.4,9.6,2.8,11.6,3,14.2,2.5,15.2,1.2,.5-.7,.2-1,.4-4,.3-4.4,.5-6.8,1.6-8,2.9-3,14.5,.2,16.4,6.4,1.4,4.7-4,7-2.4,12.8,1.3,4.7,6.5,8.9,7.9,9.9,.5,.3,1,.7,1,.7,0,0,2.3,1.5,5.1,2.6,2.3,.9,9.1,2.5,18.4,2.8-.5,.7-4.7,6.2-10.8,6-3.6-.1-6.6-2.1-7.6-2.8-2-1.3-3.2-2.7-3.6-3.2-3.4-3.9-12.8-10.3-22.4-10-6.9,.2-15.4,4.1-15.6,8.8-.1,2.4,2.1,4.6,4,6,6,2.8,12,5.6,18,8.4-4.8-.8-9.6-1.6-14.4-2.4-1,3-2.9,6.8-6.4,10-9.7,8.8-26.9,7.7-38-.4Z"/>
</svg>