<?xml version="1.0" encoding="UTF-8"?>
<svg id="Layer_1" data-name="Layer 1" xmlns="http://www.w3.org/2000/svg" viewBox="0 0 317.24 82.12">
  <defs>
    <style>
      .cls-1 {
        fill: #f7941d;
      }

      .cls-2 {
        fill: #f9ed32;
      }
    </style>
  </defs>
  <path class="cls-1" d="M.04,38.67c.5,7.9,4.9,16.7,12.4,20.4,10.3,5.1,16.4-4,31.2,0,2.3,.6,8.2,4,20,10.8,13.1,7.5,14.8,9.2,19.2,9.2,4.7,0,6.7-1.8,19.6-8,6.4-3,11.7-5.3,15.2-6.8-2.2-1.8-7.1-5.2-13.2-4.8-1.4,.1-5.7,.3-6.8,2.8-.9,2,1.2,3.6,.4,5.6-1.1,2.7-6.6,3.9-10.8,2.4-.5-.2-4.5-1.7-6-5.6-2.3-5.9,2.2-14,8-16.8,6.8-3.3,10.4,2.9,21.2,2.4,13.9-.7,16-11.3,27.2-10,9.3,1.1,10.1,8.7,20.4,8.8,5.7,.1,9-2.2,14.4,0,1.4,.6,5.6,2.3,6.8,6.4,1.3,4.4-2,8.5-2.8,9.6-2.1,2.6-4.6,3.9-6,4.4,.9-2.9-.1-6-2.4-7.6-2.7-1.9-6.9-1.3-9.2,1.6,.5,2,1.1,4,1.6,6,1.7,.7,3.5,1.3,5.2,2h0c.2,1.5,.7,3.4,2,5.2,5.5,7.2,22.5,7.6,26.8-.8,2.6-5,.4-12.6-5.2-18.4,1.4-4.7,.6-6.9-.4-8-2.7-2.9-8.4,.2-11.6-3.2-2.1-2.2-.4-4.2-2.4-6.4-3.5-3.9-10.5,.1-13.2-3.2-1.8-2.2,.9-4.7,0-12-.4-3.5-.7-5.9-2.4-7.6-3.7-3.6-11.5-1.2-18,.8-13.4,4.2-14.9,8.6-20,7.6-7.7-1.5-7.3-12-15.6-17.6-5.3-3.6-14.5-5.5-32,1.6-11.5,.1-22.9,.3-34.4,.4-1.7-.4-17.3-3.8-29.2,6.8C8.24,18.27-.66,26.27,.04,38.67Z"/>
  <path class="cls-1" d="M214.04,17.87c-3.3-.7-6.7-1.3-10-2,.4-1.9,.8-5.6-1.2-9.2-3.7-6.7-13.2-7.9-19.2-5.6-3.1,1.2-6.7,3.8-6.4,6,.3,2.2,4.7,2.5,5.2,5.2,.3,1.6-.9,3.3-2,4.4-4.8,.8-9.6,1.6-14.4,2.4,.3,1.5,.5,2.9,.8,4.4,4.8-.7,9.6-1.3,14.4-2,1-1.2,3.4-3.7,7.2-4.8,1.5-.4,5.8-1.7,9.6,.8,1.8,1.2,2.7,2.7,3.2,3.6,4.3-1,8.6-2.1,12.8-3.2Z"/>
  <path class="cls-1" d="M210.84,40.67c4,.7,8,1.3,12,2h0c.4-1,1.1-2.3,2.4-3.6,2.9-2.9,6.5-3.2,7.6-3.2-2-.6-5.6-1.4-10-.8-6.2,.9-10.3,4.2-12,5.6Z"/>
  <path class="cls-1" d="M254.84,18.67c7.2,.4,14.4,.8,21.6,1.2-4.7,2.5-8.7,3.7-11.6,4.4-3.9,.9-5.5,.8-6.8,0-2.5-1.4-3-4.6-3.2-5.6Z"/>
  <path class="cls-1" d="M278.04,71.87c4-.1,8-.3,12-.4,1.1-2,2.1-4,3.2-6-5,2.2-10.1,4.3-15.2,6.4Z"/>
  <path class="cls-1" d="M308.04,10.27c-.1-.7,1.9-1.6,6-2.8,1.1,1.5,2.1,2.9,3.2,4.4-6-.2-9.1-.7-9.2-1.6Z"/>
  <path class="cls-2" d="M95.24,25.67c-7.1-.5-14.3-.9-21.4-1.4-5.9-2.9-11.9-5.9-17.8-8.8-5.1-2.3-12.3-4.5-20.8-4.6-5,0-11,0-16.4,4-1.5,1.1-2.5,2.2-3.2,3,1.4,.5,2.8,1.1,4.2,1.6,.6,1.7,1.2,3.5,1.8,5.2-1.9,.2-5.2,.7-8.6,2.6-2.9,1.6-6.5,3.6-7.4,7.4-1.1,4.5,2,9.5,6.2,11.6,2.6,1.3,5.1,1.2,6.4,1-.9,1.4-1.8,3.4-1.4,5.4,1.1,5.2,10.1,7.8,16.4,8.2,10.2,.6,11-4.6,21.4-3.8,5.8,.4,8.8,2.3,14.4,.6,3.4-1,7.5-3.3,7.2-5-.3-2.1-7-2.5-8-2.6-4.9-.3-9.4,.7-13,1.6-5,1.2-7.6,2.4-10.2,1-.4-.2-2.2-1.2-2.2-2.6,0-1.3,1.5-2.2,4.6-4,2.8-1.6,3.8-1.9,5.6-3.4,1.2-1,2.7-2.2,2.4-3.2-.3-1.1-2.5-.6-4.6-2-2.2-1.5-1.8-3.4-3.2-5.6-3-4.8-9.3-2-15.2-7.2-.4-.4-4.7-4.2-3.8-6.8,1.2-3.5,10.8-3.1,15.2-2.6,5.3,.6,16.5,3.2,28.6,16.2-4.3,2.5-8.5,4.9-12.8,7.4,5.1,.9,10.3,1.7,15.4,2.6,.5-3.5,.9-6.9,1.4-10.4,6.3-1.8,12.6-3.6,18.8-5.4Z"/>
</svg>