<?xml version="1.0" encoding="UTF-8"?>
<svg id="Layer_1" data-name="Layer 1" xmlns="http://www.w3.org/2000/svg" viewBox="0 0 255.27 119.09">
  <defs>
    <style>
      .cls-1 {
        fill: #f7941d;
      }

      .cls-2 {
        fill: #f9ed32;
      }
    </style>
  </defs>
  <path class="cls-1" d="M.07,68.69c-.7-10.3,4-22.9,12.8-26.4,5.4-2.1,7.5,1.1,20.8,2.8,12.7,1.6,28.4,.9,30-4.4,.7-2.3-1.9-3.6-1.2-6.4,1.2-5,11.1-7.6,18.4-7.6,3,0,14.9,.3,24.4,8.5,3.6,3.1,5.3,5.9,9.6,6.7,3.8,.7,8.8-.5,10.4-3.6,1.5-2.8-1.2-4.8,0-8,1.6-4.1,6.8-3,10-7.2,3.7-4.8-.8-9.6,2.4-14,3.9-5.3,16-6.2,21.2-.4,1.4,1.5,2.1,3.3,2.4,4.8,4.4,.5,8.8,1.1,13.2,1.6-.3,1.5-2.1,9.3-9.6,14.4s-15.2,3.9-16.8,3.6c-.1,3.2,.3,7.5,3.2,9.6,3.5,2.6,8.6,.2,13.6-.8,5.8-1.2,14.6-1.3,26.8,4.4-8.3-1.1-13.3,.8-16.4,2.8-4.8,3.2-5.2,6.9-9.6,8-4.9,1.2-6.8-2.8-13.2-3.2-5.3-.3-13.9,1.9-16.4,8.8-2,5.5,.5,12.2,5.2,15.6,2.5,1.8,7.1,3.7,10.8,2,3.2-1.5,3-4.6,6-5.6,3-.9,5.2,1.5,9.2,2.8,3.1,1,7.8,1.7,14.8-.8-.5,2.3-1.5,5.7-4.4,7.6-4.3,2.9-7.9-.7-13.6,.8-8.6,2.3-6.3,12.3-17.6,18.8-4.5,2.6-8.5,3.1-10.4,7.2-1.2,2.7-.9,5.6-.4,7.6-6.6,.7-16.4,.8-27.6-2.4-5.9-1.7-10.9-3.9-14.8-6,1.5-1.3,4.5-4.2,4.8-8.4,.5-7.7-8.8-13.4-15.2-15.2-1.2-.3-11.1-3.1-16.4,2.4-1.3,1.4-2,2.9-2.4,4-4.1-.5-8.3-1.1-12.4-1.6,.1,2.4,.3,4.8,.4,7.2-1.8,.7-9.9,3.5-18.8-.4-7-3-10.5-8.4-11.6-10.4-4.4-.1-8.8-.3-13.2-.4-2.2-2.4-7.7-9-8.4-18.8Z"/>
  <path class="cls-1" d="M192.87,53.09h10c.5-1.7,1.1-3.5,1.6-5.2-3.9,1.7-7.8,3.5-11.6,5.2Z"/>
  <path class="cls-1" d="M174.47,7.89h16c-1.5-2.3-2.9-4.5-4.4-6.8-.2-.1-3.8-2.2-7.5-.3-2.7,1.4-4.2,4.1-4.1,7.1Z"/>
  <path class="cls-1" d="M240.87,64.69c2.5,2.5,4.9,5.1,7.4,7.6,2.3-1.3,4.7-2.7,7-4-4.8-1.2-9.6-2.4-14.4-3.6Z"/>
  <path class="cls-1" d="M234.47,58.69c-9.2-7.8-14.6-8.4-18-7.2-3.5,1.3-3.5,4.1-8,5.6-4.8,1.7-7.5-.7-14,0-4.1,.4-7.3,1.8-9.2,2.8,4.6-2.1,9.6-1.4,12.4,1.6,2,2.2,2.3,4.9,2.4,6,4.3-.3,8.5-.5,12.8-.8,.9-1.6,2.7-4.4,6-6.4,6.8-4.3,14.4-2,15.6-1.6Z"/>
  <path class="cls-2" d="M149.67,87.89c-2.3,.8-11.7,4.2-16.9,2.9-.8-.2-1.3-.5-1.5-.9-1.3-2.2,4.7-6.1,4.4-10-.2-2-2-4.7-10-7.6,3.2,2.4,4.8,5.8,4,8.4-1.2,3.7-6.8,4.5-9.6,4.4-6.5-.1-8.7-4.9-15.2-8-2.7-1.3-4.4-1.5-22.4-1.2s-25.8,.6-31.2-4.4c-2.4-2.2-2.5-3.8-2.4-4.4,.4-3.7,7.5-6.1,12.4-6.8,8.3-1.2,8.6,2.5,18.4,2.4,7.6-.1,14-.2,20.8-2.8,1-.4,4-1.6,5.2-.4,1.4,1.4-1.3,4.9,0,6.4,1.4,1.6,6.6-.2,10-2.4,4.2-2.8,6.3-6.7,7.2-8.8-2.5,1.7-6.5,3.8-11.2,3.6-5.7-.2-7.5-3.4-14.4-6.4,0,0-10.8-4.7-23.2-2.8-9.2,1.4-7.9,4.8-16,6-8.7,1.3-17.1-1.5-31.6-6.4-6.1-2.1-8.8-3.3-12-2-6.5,2.6-8,12.6-8.4,15.2-.5,3.3-1.7,11.1,3.2,18,4.8,6.7,13.4,10,22.4,8.8,.7,1.3,1.3,2.7,2,4,2.7,3.3,7.1,3.1,8.8,1.2,1.5-1.8,1.3-5.5-1.6-8,1-1.9,2.7-4.5,5.6-5.6,5.4-2.1,10.1,2.8,16.8,5.2,15,5.4,21-8.2,37.2-3.6,8.6,2.5,9.5,7.1,22,10,4.7,1.1,10.4,1.8,10.4,3.2,0,1.5-6.5,2.1-6.4,3.2,.1,1.2,8.1,3.8,14.8,.4,6.1-3.1,8-9.5,8.4-10.8Z"/>
</svg>