<?xml version="1.0" encoding="UTF-8"?>
<svg id="Layer_1" data-name="Layer 1" xmlns="http://www.w3.org/2000/svg" viewBox="0 0 282.35 111.02">
  <defs>
    <style>
      .cls-1 {
        fill: #f7941d;
      }

      .cls-2 {
        fill: #fff200;
        stroke: #fff200;
        stroke-miterlimit: 10;
      }
    </style>
  </defs>
  <path class="cls-1" d="M.15,69.2c-.8-8.1,1.6-19.8,9.2-24.3,4.3-2.5,10.6-3.1,21.1-3.9,4.4-.4,8.2-.5,10.5-3.3,2.4-2.9,.5-5.5,2.6-7.9,3.3-3.7,9.3,1,17.8-2,6.5-2.3,6.1-6.2,11.2-6.6,6.4-.5,9,5.5,15.1,3.9,0,0,.3-.1,7.2-3.3-1.2-1.1-4.7-4.6-4.6-9.2,.2-6.5,7.5-11.7,13.8-12.5,7.9-1,11.2,5.4,23,9.2,2.1,.7,4.3,1.2,6.9,1.6,5.3,.9,9.8,.6,12.8,.3-3.2,3.3-7.9,6.9-13.8,7.2-7.7,.4-11.5-5.3-17.1-3.3-6.5,2.3-7.8,12-7.9,12.5-1,7.8,3.3,17,9.2,18.4,5.5,1.3,7.7-5.2,15.8-5.3,4.8,0,8.7,2.4,16.4,7.2,9.4,5.9,10.5,8.9,14.5,8.6,5-.4,5.9-5.4,12.5-7.2,4.3-1.2,8.3-.3,11.2,.7-3.1,.9-7.2,2.8-9.2,6.6-2.9,5.6,1.3,10.1-1.3,14.5-3.2,5.2-13.4,5.6-20.4,3.9-10.3-2.5-10.9-8.9-18.4-8.6-5.6,.3-6.5,3.9-17.1,5.9-3.5,.7-6.2,.8-9.2,0-4.4-1.2-4.3-3.2-7.2-3.9-5.8-1.4-10.1,5.8-22.4,12.5-3.6,2-6.7,3.2-8.6,3.9,6.1,5.5,12.3,11,18.4,16.4-3.3-1.8-8.1-3.8-13.2-2.6-6,1.4-7.7,6.1-11.8,9.2-11.9,8.7-36.5-1.7-50.7-13.8C9.95,88.6,1.35,81.2,.15,69.2Z"/>
  <path class="cls-1" d="M131.05,102.1v-5.9l9.2-5.9h0c2.8-3.3,4.4-4.9,4.9-4.9h0c.6,0,.9-.4,1-1,5.9,2.2,11.8,4.4,17.8,6.6,.2,2.9,.4,5.7,.7,8.6-3.3-1-7.8-1.9-13.2-2-9.2-.2-16.4,2.5-20.4,4.5Z"/>
  <path class="cls-1" d="M220.55,101.4c-1.8-1.9-2-4.4-2-5.3,6.2-.8,9.4-1.2,9.8-1.2h0c.5,0,.7,0,.7-.1,.7,2.6,1.3,5.3,2,7.9-3.9,1.9-8.1,1.3-10.5-1.3Z"/>
  <path class="cls-1" d="M189.65,70.5c.9,5.4,8.8,8.3,14.5,8.6,2.2,.1,4.5-.2,13.8-3.9,5.8-2.3,10.5-4.4,13.8-5.9-1.4-1-4.5-3.1-8.6-5.9-5.2-3.6-6.5-4.5-8.6-5.3-2.2-.8-5.9-1.7-11.2-.7,2,2.9,3.9,5.7,5.9,8.6-5.9-.7-11.8-1.3-17.8-2-.9,1.4-2.3,3.8-1.8,6.5Z"/>
  <path class="cls-1" d="M254.75,40.2c-1.3,5.8,6.1,13.1,13.8,13.8,7.6,.7,13.1-5.1,13.8-5.9-3.8-.3-8.2-1.3-11.2-4.6-3.5-4-2.3-8.5-5.3-9.9-3.4-1.6-10,2-11.1,6.6Z"/>
  <path class="cls-2" d="M53.45,39.6c8.3,1.4,14.1,4.6,20.4,1.3,5.4-2.8,8.1-8.7,9.9-7.9,1.9,.9-.9,7.5,2,9.9,2,1.7,5.1-1.5,9.9-1.3,4.3,.2,7.7,2.9,9.9,5.3,2.3,1.1,4.7,2.2,7.2,3.3,10.5,4.3,20.5,6.3,28.9,7.2-23.7-1.3-47.4-2.6-71.1-3.9-.4,2.2-.9,4.4-1.3,6.6,13.4,.6,17,3.5,17.8,5.9,2,6.4-13,17.6-26.3,22.4-5.9,2.1-24.7,7.8-42.8-2-5.1-2.8-9.6-4.5-11.8-9.2-4.6-9.6,2.4-23.8,11.8-30.9,13.4-10.3,33.3-7.1,35.5-6.7Z"/>
</svg>