<?xml version="1.0" encoding="UTF-8"?>
<svg id="Layer_1" data-name="Layer 1" xmlns="http://www.w3.org/2000/svg" viewBox="0 0 267.06 118.53">
  <defs>
    <style>
      .cls-1 {
        fill: #f7941d;
      }

      .cls-2 {
        fill: #f9ed32;
      }
    </style>
  </defs>
  <path class="cls-1" d="M.06,63.4c-.1-1.7-.6-10.2,4.8-16.8,5.3-6.5,13.7-8.2,13.2-11.6-.3-1.8-2.6-1.9-2.8-3.6-.3-3.3,8.2-8.7,16.4-8,4,.3,4.7,1.8,10.8,3.2,4.8,1.1,8.9,1.3,11.6,1.2-1,.3-4.5,1.5-5.2,4-.9,3.6,4.4,8.5,9.6,9.6,2.4,.5,3.2-.1,9.2-.8,6.8-.8,8.2-.3,11.6-.8,3.9-.6,9.3-2.2,15.6-7.2-1.3-.7-2.8-1.9-3.2-3.6-1-3.8,3.5-8.1,7.6-9.6,5.9-2.1,11.3,1.5,12,2,2-1.5,4.9-3.4,8.8-4.8,7.7-2.8,21.2-4.5,27.6,2.4,4.3,4.7,1.6,9.2,6.4,13.2,1.8,1.5,3.4,1.9,14.4,2.8,12.9,1.1,19.4,1.6,23.6,.8,6.8-1.3,7.7-3,12.8-2.8,8.1,.4,14.4,5.2,14,6.4-.6,1.9-18.1-4.7-22,1.2-1.3,2,0,3.9-2,6.4-2.2,2.7-5,1.9-8,4.4-1.4,1.2-3.1,3.3-4,7.2-8.8,2.5-14.4,1.3-18-.4-4-1.9-5.8-4.5-10.4-4.8-3.8-.3-8.9,1.1-9.6,4-.7,2.8,2.9,6.8,6.8,8,5.7,1.8,9-3,13.6-1.2,4.3,1.7,4,6.9,7.2,11.2,3.1,4.2,10,8.1,26.4,6.8-6.6,2-12.4,3.8-20.8,6.4-7.3,2.2-11.8,3.6-15.2,8-2.3,3-1.4,4-3.6,6.4-4.8,5.4-13.7,6-20,4.4-1.9-.5-8.5-2.2-12.4-8.4-1.5-2.4-2.1-4.8-2.4-6.4,3.6-.1,7.2-.3,10.8-.4,.6-.4,4.3-2.8,4.8-7.2,.5-4.6-2.7-9.4-8-11.2-8.1,.8-16.3,1.6-24.4,2.4-1.3,2.3-3.3,5.5-6.4,8.8-3,3.2-7.4,7.9-13.6,9.6-10.6,3-18.7-5.1-22.4-1.2-1.7,1.8-1.6,5.2-.4,7.2,2.5,4.4,11.2,5.6,21.6,1.2,.2,.3,1.5,3.3,0,6-1.5,2.6-5,3.9-8.4,2.8-.9,1.8-2.6,4.3-5.6,6-9,5.2-23.2-1-24.8-8-.9-4.2,3.2-6.2,2-10.4-1.4-4.8-8.1-6.9-14.4-8.8-12.9-3.9-15.1-.6-21.6-4C5.96,81.4,.56,72.4,.06,63.4Z"/>
  <path class="cls-1" d="M184.46,68.9c2.9,.2,6.9,.8,10.9,2.9,5.2,2.7,7.6,6.2,9.1,5.3,1.3-.7,1.2-4.4-.3-6.9-2.8-5-10.2-4.8-10.9-4.8-4.4,.2-7.5,2.4-8.8,3.5Z"/>
  <path class="cls-1" d="M206.06,55.3c9.3,6.4,14.7,6.4,17.9,5.1,3.1-1.2,3.9-3.5,7.5-5.1,5.1-2.2,10.6-.7,14.4,.8-2.1-1.7-9.4-7.2-20.3-7.2-10.2-.1-17.3,4.7-19.5,6.4Z"/>
  <path class="cls-1" d="M191.86,6.7c-4.6-.3-9.2-.5-13.9-.8-4.4-3.8-8.3-5.1-10.4-5.6-1.8-.4-2.9-.4-3.7,.3-1.3,1.1-1.1,3.5-.5,5.1,1.2,3.5,4.3,3.7,5.6,6.1,1.1,2,1,5.4-3.5,12,4.4,.4,8.9,.7,13.3,1.1,4.4-6.1,8.8-12.1,13.1-18.2Z"/>
  <path class="cls-1" d="M199.36,1.4c3.2,1.8,6.4,3.6,9.6,5.3-.1-2.2-.2-4.4-.3-6.7-3.1,.5-6.2,1-9.3,1.4Z"/>
  <path class="cls-1" d="M257.76,68.3c3.1-.4,6.2-.7,9.3-1.1-.4-1.1-.7-2.1-1.1-3.2-2.7,.4-5.3,.9-8,1.3,0,1.1-.1,2.1-.2,3Z"/>
  <path class="cls-2" d="M144.66,44.3c-5.8-.5-15.1-.4-24.8,4-2.5,1.1-4.7,2.4-6.7,3.7-12.5,.5-25.1,1.1-37.6,1.6-1.5-1.7-3.7-4-6.7-6.4-2.7-2.2-23.3-18.2-44.3-10.9C13.06,40.3-.44,51.9,1.36,63c1.9,12,20.6,17.8,22.7,18.4,5.2,1.5,21.7,5.2,27.7,3.7,.5-.1,2.1-.6,3.5,.3,1.7,1.1,1.4,3.5,2.1,4.8,1.2,2,5.8,2.9,18.7-.5-3.5-1-6.9-2-10.4-2.9-.6-2.7-.9-6,.8-7.5,1.1-.9,2.2-.6,5.6-.5,5.8,.1,9.7,.1,11.7-2.1,1.4-1.5,.6-2.5,2.1-5.1,1.5-2.5,3.8-4,5.6-4.8-1.4-.4-3.6-.8-5.9-.3-3.9,.9-4.8,3.7-8.3,5.9-4,2.5-11.1,4-14.1,.8-2.5-2.6-2.2-8.3,1.1-13.3,15.1-.6,30.2-1.2,45.3-1.9,.7,.9,1.9,2.4,3.7,2.9,4.7,1.4,9.2-4.1,17.6-9.6,3.1-1.9,7.6-4.6,13.8-7Z"/>
</svg>