<?xml version="1.0" encoding="UTF-8"?>
<svg id="Layer_1" data-name="Layer 1" xmlns="http://www.w3.org/2000/svg" viewBox="0 0 295.23 90.42">
  <defs>
    <style>
      .cls-1 {
        fill: #f7941d;
      }

      .cls-2 {
        fill: #f9ed32;
      }
    </style>
  </defs>
  <path class="cls-1" d="M.03,39.8c.1,1.4,.8,14.6,10.1,20.8,6,4,9.2,.9,17.6,5.6,7.1,3.9,7.2,7.4,12.8,9.6,3.8,1.5,9.6,2.1,18.4-1.6-3.6-2.9-4.2-5-4-6.4,1-6.8,23.8-14.3,36.3-6.4,2.8,1.7,5.5,4.5,9.6,4.3,4-.2,7.1-3.2,9.1-5.6-2.6-1.7-3.3-3.3-3.5-4.5-.6-6.1,12.7-14.5,24-12.8,.9,.1,7.7,1.3,8.5,4.8,.7,2.8-3.1,4.8-2.7,7.2,.4,2.3,4.4,4.8,19.5,6.1-.5-1.4-1.2-4-.8-7.2,.6-4.8,3.8-10.1,9.1-12,4.5-1.6,8.7,0,10.9,.8,5.4,2,5.4,4.5,9.1,5.3,6.1,1.3,12.8-4.3,16-9.1,2.4-3.6,5.7-10.8,2.9-13.3-2-1.8-6.6-.9-11.2,1.9-.8,3.8-3.5,6.9-7.2,8-3.8,1.2-7.9,.1-10.7-2.7h-23.2c-1.5-1.8-3.4-4.8-2.9-8,.9-6.1,9.6-8.2,9.1-11.5-.4-2.7-7-4.5-12.8-4.5-8.2,0-11.1,3.5-25.1,8.5-7.4,2.7-11.3,4.1-17.1,4.5-4.1,.3-18.1,1.4-22.7-6.4-1.7-2.8-1.6-6-1.3-8-3.7-2.3-12.8-7.2-25.3-7.2-14.1,0-24,6.3-27.5,8.8-3,.6-9.6,2.4-15.5,8C7.73,18.7-.57,27,.03,39.8Z"/>
  <path class="cls-1" d="M295.23,26.4c-4.8,.4-9.6,.7-14.4,1.1,.5-1.4,1.1-2.8,1.6-4.3,4.2,1.1,8.5,2.2,12.8,3.2Z"/>
  <path class="cls-1" d="M234.13,18.2c-2,0-5-.4-7.2-2.4-3-2.6-2.4-6-4-8.3-1.9-2.6-7.2-4.4-22.1-.5,3.6,.1,7.9,.7,9.1,3.2,1,2.1-1.1,3.9-.3,6.4,1.4,4.3,9.4,5.2,10.4,5.3,6.6,.7,11.8-2.2,14.1-3.7Z"/>
  <path class="cls-1" d="M234.43,41.1c-3.6-.1-7.3-.2-10.9-.3-.3,1.2-.5,2.5-.8,3.7,3.4-.2,6.8-.4,10.1-.5,.5-.9,1-1.9,1.6-2.9Z"/>
  <path class="cls-1" d="M193.03,56.8c2.8-.2,5.5-.4,8.3-.5,.7,.8,1.6,1.5,2.7,2.1,5.3,3.1,11.4,1.1,12.8,.5-1.1,2.8-3.2,7.1-6.7,11.5-3.4,4.3-6.6,8.3-12,10.1-7.3,2.5-14.1-.4-16.5-1.6,9.1-.1,15.8-6,16.2-12.3,.3-5.1-3.9-9-4.8-9.8Z"/>
  <path class="cls-1" d="M179.73,81.4c-2.8-1.2-5.5-2.3-8.3-3.5-1.4-.5-6.6-2.3-10.4,.3-.5,.4-2,1.3-1.9,2.4,.3,2,6.2,2.6,6.7,2.7-1.7,.6-7.8,3-7.5,4.8,.3,1.6,5,2,6.4,2.1,2.9,.3,6.1,.6,9.3-1.3,4.1-2.4,5.4-6.4,5.7-7.5Z"/>
  <path class="cls-1" d="M159.43,72.8c-1,2.1-2,4.3-2.9,6.4-4.1-.6-8.2-1.2-12.3-1.9,1.9-1.5,3.7-3,5.6-4.5h9.6Z"/>
  <path class="cls-2" d="M105.03,44.6c-8.1-1-13.6-3.6-17.1-5.6-4.6-2.7-4.9-4.1-4.8-4.8,.2-1.7,2.9-3.2,6.7-3.7-1.1-2.7-2.8-5.8-5.3-8.8-9.5-11.1-24-11.7-27.5-11.7,9.3,1.7,15.3,6.7,15.5,11.7,.1,2.7-1.6,4.8-2.9,6.4-4.5,5.5-13.3,8.6-19.5,5.3-2-1.1-3.3-2.6-4-3.5,2-1.7,5.7-5.2,5.1-8.8-.9-4.8-9.2-6.9-14.9-8.3-4.8-1.2-7.4-1.8-10.9-1.3-9.6,1.3-16.6,10-19.5,17.6-.8,2-4.2,11.2,.3,19.7,.9,1.8,3.6,6.8,8.3,7.7,2.4,.5,3.4-.5,13.1-4.5,6.3-2.6,8.7-3.3,11.7-2.9,2.5,.3,6,1.5,6.1,3.2,.1,1.3-1.9,2.6-3.2,3.2-2.3,1-3.7,.4-9.3,.3-4.2-.1-4.7,.2-4.8,.5-.3,.9,2.1,2.5,4.5,4-2.8,.7-3.4,1.4-3.5,1.9-.1,1.4,4.5,3.1,8.8,3.2,4.9,.1,8.6-2.1,9.6-2.7,12.7-7.2,38.7-4.9,38.7-5.3,0-.3-13.4,.8-22.9-4.5-2.3-1.3-4.6-3-5.6-5.9-.2-.5-1.4-3.9,0-6.4,3.1-5.5,18.4-5.4,26.7,2.1,1.8,1.6,2.9,3.3,3.5,4.3,1.1,.8,3.5,2.3,6.9,2.4,5.9,.2,9.7-4.2,10.2-4.8Z"/>
</svg>