<?xml version="1.0" encoding="UTF-8"?>
<svg id="Layer_1" data-name="Layer 1" xmlns="http://www.w3.org/2000/svg" viewBox="0 0 313.42 82.71">
  <defs>
    <style>
      .cls-1 {
        fill: #f7941d;
      }

      .cls-2 {
        fill: #f9ed32;
      }
    </style>
  </defs>
  <path class="cls-1" d="M53.42,61.35c6.1-.3,8.2,2.7,15.2,4.8,3,.9,14.2,4.3,20.4-.7,3.4-2.8,2.2-5.6,6.4-8.5,2.7-1.9,5.4-2.2,10.8-2.8,6-.7,9-1,11.2,.8,2.4,2,1.6,4.7,2.8,9.2,1.6,6,5.8,12.3,11.6,15.6,5.9,3.3,15.4,4.7,21.6-.4,.5-.4,5.8-4.9,6-11.2,.1-3.4-1.3-5.6,0-7.2,1.4-1.8,5-1.4,7.6-.8-9.1-5.6-13-5.3-14.8-4-1.7,1.3-1.1,3-3.2,4.8-3.5,3-9.7,1.6-13.2,0-1.2-.6-6.8-3.2-7.6-8-.3-1.7,.2-2.5,1.6-7.6,.9-3.4,1.6-6.2,2-8,5.6,6,13.3,8.7,20,6.8,3.6-1,6.1-3.2,7.6-4.8-2.8-.6-6.7-1.9-10.4-4.8-4.4-3.5-4.5-6.3-8-10.4-4.9-5.8-13.5-10.6-21.6-10-6.6,.5-6.4,4.1-14.8,6-1.9,.4-12.1,2.7-20.8-2.4-7-4.1-5.1-8.5-12.4-13.2-5.3-3.5-13.9-6-21.6-3.6-5.1,1.6-6,4.3-13.6,6.4-5.2,1.5-5.8,.5-8.8,2-5.8,2.9-5.1,7.2-10.8,12-6,5-9.4,2.6-13.2,6.8-5.6,6.3-2.7,16.9-2.4,18,3.2,11.4,15.1,19.2,25.2,20,5.1,.4,12.9-.7,19.6-2.8,3.3-1,4.7-1.8,7.6-2Z"/>
  <path class="cls-1" d="M149.42,21.75c4.7,5.7,8.7,7,11.6,7.2,5.4,.3,9-3.5,12.4-1.6,2.8,1.6,2,5,4,6.8,2.6,2.4,9.7,1.6,27.6-10-12.7,3.5-18.2,1.5-20.8-1.2-3-3.1-1.3-6.3-5.2-10.8-5.3-6.2-13.8-6-14.8-6-1.2,0-7.9,.3-9.2,3.6-.9,2.4,1.6,4.4,.8,7.2-.8,2.6-3.8,4-6.4,4.8Z"/>
  <path class="cls-1" d="M262.62,72.95c6.3-.3,12.5-.5,18.8-.8-.5,.8-3.2,5.4-8.4,6.4-1.1,.2-3.7,.7-6.4-.8-2.7-1.5-3.7-4.1-4-4.8Z"/>
  <path class="cls-1" d="M313.42,13.35c.1,.6-3.8,1.8-11.6,3.6-2.3-1.1-4.5-2.1-6.8-3.2,12.2-1,18.3-1.2,18.4-.4Z"/>
  <path class="cls-1" d="M270.22,24.15c-5.4,0-9.2-1.3-11.6-2.4-3.6-1.7-4.9-3.4-8-4-4-.8-7.6,.9-10,2.4,3.3,1.3,9.1,3.7,8.8,5.2-.4,1.7-8.8,1.4-12,1.2-1.7,2.3-3.5,4.5-5.2,6.8,12.7-3.1,25.3-6.1,38-9.2Z"/>
  <path class="cls-2" d="M90.02,31.35c-2,.5-4-.7-4.4-2.4-.3-1.4,.4-3,1.8-3.8-3,.9-9.5,2.6-15,.2-1.7-.7-2.3-1.4-2.6-2-1.6-3,2.7-6,2.4-10-.3-4.9-7.2-8.6-12-9.8-8.7-2.1-15.8,3.1-17,4,3.3,.2,11,1.3,15,6.4,1,1.3,2.3,3.5,3.2,5.2,1.5,2.9,2.4,5.4,3,7.2-5.3,.8-9.2,.1-11.8-.8-6.3-2.1-8.4-6-14.4-7-3.7-.6-6.9,.2-9,1,.3,1.6,1.3,6.9,6,11.2,4.5,4.1,9.6,4.8,11.2,5-2.3,4.3-4.7,5.8-6.6,6.4-6.2,2-11.1-4.5-22.6-7.2-4.8-1.1-9-1.2-11.8-1-.7,2.6-1.7,7.9,.4,13.6,3.4,9.5,12.7,13.1,16,14.4,15.6,6.1,30.7-2.8,33-4.2-1,.5-6.1,2.9-11.4,.6-1.7-.7-3.8-1.6-4-3.2-.5-3.5,8.4-9.6,16.8-9,0,0,1.1,.1,11,2.8,.2-11.7,1.2-12.8,1.2-12.8,2.4-2.8,6-.9,17.2-3.6,1.9-.4,3.4-.9,4.4-1.2Z"/>
</svg>