<?xml version="1.0" encoding="UTF-8"?>
<svg id="Layer_1" data-name="Layer 1" xmlns="http://www.w3.org/2000/svg" viewBox="0 0 302.8 127.5">
  <defs>
    <style>
      .cls-1 {
        fill: #f7941d;
      }

      .cls-2 {
        fill: #f9ed32;
      }
    </style>
  </defs>
  <path class="cls-1" d="M0,68.8c-.1,13.5,14.1,25,25.6,25.6,6.4,.3,8.7-2.9,16.8-2,6.4,.7,8.8,3.2,16.4,6.8,8.8,4.2,21,10,32.8,7.6,3.8-.8,10.5-3,17.6-10.8,3.9,.1,7.7,.3,11.6,.4,4.1,4.6,8.7,5.8,10.4,4.4,1.4-1.2,1.1-4.2,0-7.2-2.4-2.9-4.7-4-6.4-4.4-5.3-1.3-8.7,2.8-13.2,.8-1.6-.7-3.8-2.3-4-4.4-.4-4.8,10.9-9.2,16-11.2,5.8-2.3,11.9-3.9,22.4-5.6,21.6-3.4,32.1-2.1,38.4-.8,11.7,2.4,12.9,5.5,13.2,6.8,.6,2.8-1.9,5.6-3.6,7.2,.9,.6,5.9,3.6,12.4,2,6.3-1.5,9.4-6.2,10-7.2-.5-.1-5.8-1.3-7.6-6-1.6-4.2,.5-8.9,3.2-11.2,4.3-3.8,8.2,0,15.6-3.2,5.1-2.2,5-4.7,12.8-10,3.7-2.5,7-4.2,9.2-5.2-3-.9-7.4-1.8-12.4-.8-4.7,1-4.7,2.6-8.8,3.6-9.3,2.2-14.9-5-20.8-1.6-2.9,1.6-1.7,3.4-4.8,5.6-5.4,3.8-10.5-.8-18.8,1.2-5.6,1.4-4.4,3.7-12.8,7.6s-15.3,4.3-18.8,4.4c-5.4,.2-12.3,.5-14.8-3.6-1-1.6-1-3.5-.8-4.8,1.6,.8,6.3,2.8,12.4,1.6,5.3-1,8.7-3.9,10-5.2-4.1,.3-10.1,.1-16.4-2.4-8.6-3.5-9-7.8-17.2-12.8-9.1-5.5-23.2-9.1-33.2-3.6-5,2.8-3.8,5.1-9.2,9.2-5.7,4.4-12.3,5.9-34.8,6-24.4,.1-27.8-1.7-34.4,2C7.2,51.4,.1,59.3,0,68.8Z"/>
  <path class="cls-1" d="M138,27.2c2.9,1.6,7.3,3.5,12.8,4.4,10.6,1.7,19.1-1.5,22.8-3.2-2-1.6-4.5-3.2-7.6-4.4-12.8-4.9-25.2,1.6-28,3.2Z"/>
  <path class="cls-1" d="M220.8,1.6c-2.9-.5-5.9-1.1-8.8-1.6V7.6c3-2,5.9-4,8.8-6Z"/>
  <path class="cls-1" d="M131.6,121.2c-.2,1.5-.4,3-.7,4.5,2.8,.6,5.6,1.2,8.4,1.8,.2-2.3,.4-4.6,.5-6.9-2.6,.1-5.4,.4-8.2,.6Z"/>
  <path class="cls-1" d="M225.6,100.4c-4.3,2-8.5,4-12.8,6,4.4,.9,8.8,1.9,13.2,2.8,1.5-1.6,2.9-3.2,4.4-4.8,6.3,1.1,10.3-.1,12.8-1.6,1.6-.9,2.4-1.8,4.8-4,3.7-3.2,6.9-5.6,9.2-7.2-4.7-.7-10.1-1.1-16-1.2s-11.3,.3-16,.8c-2.9,1.6-5.9,3.2-8.8,4.8,3.1,1.4,6.2,2.9,9.2,4.4Z"/>
  <path class="cls-1" d="M254,36.8c3.4,0,7.1,.5,8.4,2.8,1.1,1.9-.5,3.4,.4,5.2,1.9,3.6,11.6,4.1,18.8,0,2.9-1.7,3-2.7,5.6-4,5.3-2.7,11.3-1.5,15.6,0-4.7-5.6-8.8-6.9-11.6-7.2-5.8-.5-8.7,3.4-15.2,2-3.8-.8-4.2-2.5-7.6-3.2-5.2-1.2-10.4,1.5-14.4,4.4Z"/>
  <path class="cls-2" d="M100.4,56.4c-10.1-2.7-15.4-.9-18.4,1.3-3.4,2.6-3.4,5.5-7.7,8-3.5,2-9.4,3.4-13.1,.8-3.5-2.5-1.8-6.6-5.1-11.7-3.2-5-8.6-7-11.5-8-11.9-4.3-29.5-.4-35.5,11.5-.5,1-4.2,8.7-.8,15.2,3.6,6.9,12.9,8,23.7,9.3,8.4,1,14.8,1.8,21.1-1.6,3.6-1.9,5.1-4.1,10.7-6.1,4.5-1.6,5.9-1,9.1-2.9,4.3-2.6,3.6-4.8,7.7-7.2,3.5-2.1,5.2-1.2,10.1-2.9,2.7-1,6.1-2.7,9.7-5.7Z"/>
</svg>