<?xml version="1.0" encoding="UTF-8"?>
<svg id="Layer_1" data-name="Layer 1" xmlns="http://www.w3.org/2000/svg" viewBox="0 0 309.63 114.3">
  <defs>
    <style>
      .cls-1 {
        fill: #fff200;
      }

      .cls-2 {
        fill: #f7941d;
      }

      .cls-3 {
        fill: #f9ed32;
      }
    </style>
  </defs>
  <path class="cls-2" d="M.23,67.45c-.2-1.8-1.8-14.7,7.5-24,8.7-8.7,23.1-10.6,35.7-4.3,8.8-2,15.6-1.5,20.3-.5,7.6,1.5,10,4.1,16.5,3.7,8-.5,15.7-5.1,15.5-8.5-.2-2.6-4.8-2.5-5.9-5.9-1.5-4.7,5.3-12,12.3-15.5,10.3-5.1,24.6-3.7,28.3,2.7,2,3.4,2.1,10.7,2.1,10.7,0,0-1.6,4.4-1.1,7.5,.7,3.6,4.7,6.6,8.5,7.5,5.5,1.2,7.8-2.7,12.3-1.1,3.8,1.4,2.8,4.5,6.9,7.5,5.9,4.2,10.3-.3,18.1,3.7,4.7,2.4,5.3,5.2,9.1,5.3,3.6,.1,5.3-2.3,8.5-3.7,3.6-1.5,9.3-1.9,18.7,3.2-2.8,.3-6.8,1.2-10.7,3.7-4,2.7-5.1,5.3-7.5,7.5-3.2,2.8-9.1,5-21.3,2.1,4.8-3.1,7.3-6.7,6.4-8.5-.8-1.7-4.6-2.5-6.9-1.1-2.2,1.3-1.7,3.8-3.7,5.3-1.9,1.3-4.6,1-7.5,0-1.4-2.1-2.8-4.3-4.3-6.4-.1,1.5-.5,5.1-3.2,8-3.8,4-10.4,4.9-16.5,2.1,2-5.8,.6-9,0-10.1-4.8-8.6-25.1-6.7-28.8,.5-1.6,3.1,.9,5.2-1.1,9.6-2.5,5.4-7.7,5.2-8.5,9.6-.6,3.3,1.6,7.3,4.3,8,2.7,.8,4.5-2.2,8.5-3.7,3.1-1.2,7.9-1.8,15.5,1.6-2.2,1.3-5.1,3.5-5.9,6.9-1.2,5.5,4.5,8.7,3.2,13.9-1,3.9-5.6,7-9.6,7.5-5.5,.6-7.2-3.9-12.8-3.2-4.2,.5-4,3.2-9.1,4.8-3.1,1-3.8,.2-16-1.1-6.2-.6-7.7-.6-10.7-1.6-3.4-1.1-8-2.7-8.5-5.9-.5-3,3-5.8,3.7-6.4-2.9-4-7.4-8.8-13.9-10.1-9.4-1.9-13.5,5.3-22.9,4.8-11.1-.6-23.5-12-25.5-26.1Z"/>
  <path class="cls-2" d="M309.63,48.26c-5-1.2-10-2.5-14.9-3.7-4.6,1.2-9.2,2.5-13.9,3.7,3.9,1.6,7.8,3.2,11.7,4.8,5.7-1.6,11.4-3.2,17.1-4.8Z"/>
  <path class="cls-2" d="M144.23,5.55c3.1-.5,6.7-.5,8.5,1.6,1.8,2,.5,4.2,2.1,5.9,2.8,2.8,11.4,1.5,14.4-3.7,1.1-2,1.2-4.1,1.1-5.3-1.3,.7-3.5,1.5-5.9,1.1-3.9-.6-5-3.8-8-4.8-2.2-.9-5.9-.4-12.2,5.2Z"/>
  <path class="cls-2" d="M162.93,95.16c1.1,2.1,2.1,4.3,3.2,6.4,6,.7,12.1,1.4,18.1,2.1-1.6-4.1-3.2-8.2-4.8-12.3-5.5,1.3-11,2.6-16.5,3.8Z"/>
  <path class="cls-2" d="M231.73,102.16c-.4-2-.7-3.9-1.1-5.9,3.2,1.1,6.4,2.1,9.6,3.2-2.8,.9-5.7,1.8-8.5,2.7Z"/>
  <path class="cls-2" d="M219.43,80.26c3.9-2.8,7.8-5.7,11.7-8.5,3.4-.4,6.8-.7,10.1-1.1,.9-3,1.8-6,2.7-9.1-4.1-1.4-8.2-2.8-12.3-4.3-4,7.7-8.1,15.3-12.2,23Z"/>
  <path class="cls-3" d="M116.63,29.66c-1.5-2.3-3.5-5.7-5.6-10,4.3-2.4,6.6-1.6,7.4-1.2,4,1.9,4.9,9.3,5.2,12,.4,3.7-.1,5.3,1.4,7.4,1.4,1.9,3.2,2.3,3.6,4.2,.4,1.9-.8,3.7-1.2,4.2-3.8,5.4-22.7-.2-24-.6,4.1-.6,10.3-1.8,16-3.6,.8-.3,1.9-.6,2.4-1.6,1.2-2.2-1.7-5.5-5.2-10.8Z"/>
  <path class="cls-1" d="M98.03,45.85c-17.9-2-32-3.8-41-5-25.7-3.3-36.2-5.1-43.8,1.8-5.4,4.9-6.6,11.6-7.2,15.2-2.1,12.2,2.5,27.3,12.2,31.4,4.8,2,5.5-.9,17.8-1,15.6-.1,16.2,4.7,27,2.8,4.5-.8,9.3-2.5,14.2,0,2.2,1.1,3.7,2.6,4.6,3.8-1.3,1-2.7,2-4,3,2.8,5.4,8.6,8.1,13.8,6.8,5.7-1.4,8-7,8.2-7.6-4.1-1-8.1-2-12.2-3-1-1.5-.9-2.6-.8-3,.4-2.2,3.6-4.1,7.8-3.8-4.9-.9-9.9-1.7-14.8-2.6,1.4-1.1,2.8-2.3,4.2-3.4-1.6,.2-4.2,.5-7.4,1-11.2,1.6-13.9,2.5-19,2.4-1.4,0-12.2-.1-12.8-3-.7-3.4,13.5-8.4,12.8-10.4-.5-1.4-7.5,1.4-15-1.8-2.9-1.2-5-3-6.4-4.4,1.9-2.4,5-5.5,9.2-6.2,5.4-.9,6.8,2.9,14.2,3.4,6.5,.4,8.5-2.3,15.4-.8,1.2,.3,5.8,1.4,6,3.4,.2,1.5-2.2,2.3-2.8,5-.3,1.6,.2,3.1,.6,4,.7,.2,4.1,.8,7.4-1.2,.3-.2,4.3-2.7,4.6-6.8,.3-3.6-2.6-4.4-2.8-8.8,0-.7-.2-4.5,2.6-7.6,2.8-3.2,6.6-3.5,7.4-3.6Z"/>
</svg>