<?xml version="1.0" encoding="UTF-8"?>
<svg id="Layer_1" data-name="Layer 1" xmlns="http://www.w3.org/2000/svg" viewBox="0 0 257.32 127.79">
  <defs>
    <style>
      .cls-1 {
        fill: #f7941d;
      }

      .cls-2 {
        fill: #f9ed32;
      }
    </style>
  </defs>
  <path class="cls-1" d="M.12,70.81c-1.1-7.3,5.5-16.5,13.2-19.6,9.9-4,16.8,3.9,26.4-1.6,3.2-1.8,7.8-5.8,11.2-9.2,3.8-3.9,4-5,6.4-6,4.8-2.1,7.8,.8,14-.8,3.8-1,4-2.4,7.2-3.6,8.2-3.2,13.7,3.4,30.4,6,0,0,3.8,1.2,8.8,.9h.2c1.5-.1,4.8-.4,5.8-2.1,.8-1.3,.2-3.4-1.2-5.2,1.6-1.7,4.3-4.1,8-6.2,1.8-1,6.3-3.2,12.4-3.8,9.2-.9,9.9,3.4,17.6,1.6,4.7-1.1,8.3-3.5,12-1.6,1.7,.9,2.1,2,3.6,3.6,2.2,2.3,6,4.7,13.2,5.2-8,3.6-14,3.5-18,2.8-3.9-.7-6.3-2.1-8-.8-2.8,2.3-1.5,10.6,2.4,12.4,1.9,.9,3-.4,6.8-1.2,3-.6,4.6-.3,19.6,2.4,5,.9,7.5,1.3,9.1,1.1,5.8-.9,8.5-4.8,11.7-6.7,4.3-2.6,12.3-3.3,28.4,6-5.2,.9-10.4,1.9-15.6,2.8-2.7,1-6.6,2.8-10,6.4-3.2,3.3-3,5-5.6,7.2-5.7,4.8-16,4.9-18,1.2-.4-.8-1-2.7,1.6-6.8-2-1.4-5-3.1-8.8-3.2-5.5-.1-7.1,3.2-14,4.4-6.6,1.1-7.4-1.6-12.4,0-5.8,1.8-5.3,5.7-11.6,8.8-7.3,3.6-14.7,1.7-14.8,2.8-.1,.5,1.3,1.3,7.2,2.8,.8-.6,7.9-5.3,14.4-2.4,2.5,1.1,5.9,3.8,5.6,6.4-.4,2.9-5.2,3.3-5.6,6-.2,1.5,1,3.7,6.4,6.8-5.6,1.9-8.9,1.2-10.8,0-2.1-1.3-2.4-2.9-5.2-4.4-.7-.4-3.9-2.2-7.6-1.6-5.3,.8-8.5,5.9-10.8,9.6-1.8,2.9-2.2,4.5-2.8,5.6-2.3,4.1-11.3,6.7-40.4,0-.2-1.3-.8-3.5-2.4-5.6-2.5-3.3-6.1-4.4-7.6-4.8-9.5-2.8-25.1,2.6-37.2,2.8-15.1,.2-33.5-7.7-35.2-18.4Z"/>
  <path class="cls-1" d="M93.32,119.61c8.6-.9,11.5,.7,12.4,2.4,.9,1.8-.4,3.5,.8,4.8,1.7,1.9,7.3,1,10-2.4,2.4-3,2.2-7.6,.4-10.4-3.5-5.7-14-6.4-19.6-1.6-2.7,2.3-3.6,5.5-4,7.2Z"/>
  <path class="cls-1" d="M155.72,96.41c6.6,8.7,13.9,11.7,17.2,12.8,4,1.4,9.6,1.2,20.8,.8,15.7-.5,18.6-2.2,20-4.4,1.9-2.9,.4-5.4,2.8-8.8s6.5-4.7,9.6-5.2c-2.7,.1-6.6-.1-10.4-2-5-2.5-5.8-5.8-10-6.4-3.8-.5-7.1,1.7-9.2,3.2-3.9,2.7-5.9,6.2-6.8,8-11.3,.7-22.6,1.3-34,2Z"/>
  <path class="cls-1" d="M236.12,62.01c3.9,1.6,7.7,3.2,11.6,4.8,3.2-3.3,6.4-6.7,9.6-10-7,1.7-14.1,3.5-21.2,5.2Z"/>
  <path class="cls-1" d="M180.92,8.01c8.2-.7,11.3,.9,12.4,2.8,1.5,2.6-.7,5.7,1.2,7.6,1.7,1.6,5.5,1.4,7.2-.4,1.6-1.7,.2-3.5,1.6-6.8,1.7-3.8,4.9-4.1,4.8-6-.1-2.5-5.8-5-10.8-5.2-8.4-.3-14.6,6-16.4,8Z"/>
  <path class="cls-2" d="M96.92,43.61c-4.8-5.6-7.3-6.8-8-7.2-6.9-3.3-14.4-.8-17.2,.4,2.9,.2,8.7,1.1,13.6,5.6,1.9,1.7,4,3.7,3.6,5.6-.6,3.1-6.5,1.9-16,6.4-4.5,2.1-7.7,4.5-15.2,7.2-2.7,1-5.3,1.8-6,.8-1.1-1.4,3.7-4.7,3.2-8-.8-5.7-17.3-11.3-31.6-6.8-7.2,2.2-20.1,9-20,18.8,.1,10.2,14.2,18.1,25.6,18.4,9.1,.2,20.7-4.3,23.6-11.6,.5-1.3,.7-2.6,2-3.6,3.6-2.8,9.9,1.2,16.4,3.2,5,1.5,12.3,2.6,22.4,.4-5.2,2.1-10.4,4.3-15.6,6.4,7.5-.5,12.7,1.1,16,2.8,4.5,2.3,6.3,4.8,12,7.6,4.4,2.2,8.5,3.1,11.2,3.6-2.1-2.5-5.1-5.5-9.2-8.4-3.5-2.5-6.9-4.1-9.6-5.2,1.8-1.5,4-3.2,6.8-4.8,4-2.3,7.8-3.6,10.8-4.4-6.3,1.8-19,4.2-32.4-1.2-2.9-1.2-5.4-2.6-7.6-4,1.3-1.7,5.8-6.9,13.6-8.8,9.1-2.2,16.3,1.5,18,2.4-3.6-7.1-7.5-12.2-10.4-15.6Z"/>
</svg>