<?xml version="1.0" encoding="UTF-8"?>
<svg id="Layer_1" data-name="Layer 1" xmlns="http://www.w3.org/2000/svg" viewBox="0 0 290.93 125.24">
  <defs>
    <style>
      .cls-1 {
        fill: #f7941d;
      }

      .cls-2 {
        fill: #f9ed32;
      }
    </style>
  </defs>
  <path class="cls-1" d="M.53,66.4c2.2,14.9,15,28.7,30,32.4,2.5,.6,18.2,4.3,31.2-3.6,4.7-2.9,8.8-7.1,12.8-5.6,3.6,1.3,3.3,6,7.2,9.2,3.1,2.6,8.3,3.7,16.8,1.6-1.9-1.1-4.1-2.8-4.4-5.2-.4-2.7,2-4.2,1.6-6s-3.6-3.6-14.8-4c1.3-1.6,3.5-3.9,6.8-5.2,7.4-2.9,12.2,2.1,20.4,1.6,9.4-.6,9-7.5,20.4-10.8,10.4-3,22.6-.6,28.8,6.4,.4,.5,4.6,5.3,3.2,8-1.5,2.9-7.9,.4-14,4-3.3,2-5.3,5.1-6.4,7.6,4.3,2.9,8.5,5.9,12.8,8.8,3.6-.9,7.2-1.9,10.8-2.8v-13.6c1.4-1.9,3.5-4.2,6.8-5.6,7-2.9,13.5,.9,15.6-2,1.6-2.2-1.7-5.2,0-8.4,1.7-3.3,6.9-3.8,9.2-4,7.9-.7,14.3,3.1,17.2,5.2-1.9-2.7-3.7-5.3-5.6-8-1.2-1.4-3.2-3.2-6-4-4.1-1.1-6,1.1-10,.8-5.9-.4-12.7-6-12-10.8,.5-3.3,4.5-6.4,8-6.4,3,0,4.2,2.4,8.8,3.2,2.3,.4,4.3,.2,5.6,0-1.3-2-2.7-4-4-6-.2-2.3-.7-5.8-2.4-9.6-1.3-2.9-3.1-7.1-6.8-9.6-9-6.1-22.4,2.1-25.6,4-6.5,4-7.1,7.2-7.2,8-.4,2.9,1.1,6,1.6,6.8,.9,1.7,2,2.9,2.8,3.6-7.7,1.1-14.4,1.7-19.6,2-9.1,.6-12.4,.4-14.8-2-2.2-2.2-3.3-5.9-2.4-9.2,1.5-5.3,7.3-6.7,7.6-6.8,4.2-1,6.1,1.5,10.8,1.6,2.8,0,6.9-.8,12-5.2-10.3-3.3-19-4.4-25.2-4.8-14.8-1-20.1,1.9-22.8,4-2.3,1.8-1.6,2.1-3.6,3.6-8.9,6.9-19-2-32,2.4-7.8,2.6-6,6.4-14.4,9.2-8.6,2.9-11.7-.7-24.8-.4-8.8,.2-21.3,.5-27.2,8.4C-1.17,55.2,.03,62.8,.53,66.4Z"/>
  <path class="cls-1" d="M126.93,113.6c3,.6,4.6,3.4,4,5.2-.6,1.9-3.5,3.3-6.4,2,1.6,3,4.6,4.7,7.6,4.4,4-.5,7.2-4.7,6.4-7.6-.6-2.1-3-3.1-4.4-3.6-3.1-1.2-6-.7-7.2-.4Z"/>
  <path class="cls-1" d="M200.13,100.8c10.4,9.8,15.2,10.9,17.6,9.6,2.3-1.3,1.6-4.3,5.2-7.6,3.3-3.1,5.9-2.4,9.6-4.8,2.4-1.6,5.5-4.5,7.6-10.4-5.4-.4-7.5-2.1-8.4-3.6-.9-1.4-.7-2.8-2-4-1.5-1.4-3.8-1.3-5.4-1.1-.5,3.4-1,6.9-1.4,10.3-1.3,2-4,5.4-8.4,8-6.1,3.6-12,3.7-14.4,3.6Z"/>
  <path class="cls-1" d="M218.13,4C216.53,2.9,211.93-.1,205.33,0c-4.7,.1-8.3,1.8-10,2.8,3.1,1.1,6.1,2.1,9.2,3.2,4.5-.6,9-1.3,13.6-2Z"/>
  <path class="cls-1" d="M290.93,36c-2.3-1.2-6.1-2.6-10.4-2-5.8,.8-7.2,4.4-12,4.4-5.2,0-5.5-4.2-12.4-6-7-1.8-13.3,.8-15.2,1.6-4.3,1.8-7.2,4.4-8.8,6h16.8c-1.3,2-2.7,4-4,6,8.1,6.2,13.4,6.6,16.8,5.6,5.4-1.5,6.7-6.4,13.6-10.8,5.6-3.5,11.4-4.5,15.6-4.8Z"/>
  <path class="cls-1" d="M226.13,48c-3.3-2.8-6.7-5.6-10-8.4,4.1-2.8,8.8-3,11.6-.8,1.9,1.5,3.8,4.9,2.4,7.2-1.1,1.8-3.5,2-4,2Z"/>
  <path class="cls-2" d="M156.13,59.2c-19.1,5.1-34,6.1-44.4,6-7.5-.1-26.4-.8-26.4-.8,0,0,5.6-4.5,14.4-11.6-4.2-1.9-7.3-1.7-9.2-1.2-5.3,1.4-5.8,6-13.6,10.4-5.6,3.2-8.2,2.4-9.2,2-1.6-.6-3.4-2.2-3.2-3.6,.3-2.3,5.3-2,6.4-4.8,1-2.6-2.1-6.3-4-8-6.1-5.3-15.1-3.2-16.8-2.8,1.1,1,3,3,4,6,2.2,6.6-1.9,12.5-2.4,13.2-1.7-2.2-4.5-5.5-8.4-8.8-5.9-4.9-10.7-9-17.6-9.2-.4,0-8.6-.1-14.4,6-2.8,2.9-6.5,8.8-4.4,12,.8,1.2,2.1,1.7,3.6,2,.8-.3,7.3-2.4,13.6,1.6,5.6,3.6,6.8,9.3,7.2,11.2,.5,2.3,1.3,6.1-.8,7.6-1.5,1.1-4,.7-6.4-.8,1.5,3.4,4.3,8.4,8.8,9.2,.8,.2,1.2,.1,5.2-.4,10.3-1.2,10.4-1,11.6-1.6,4.6-2.4,7.5-7.9,7.6-8,0,0-5,.2-9.6-.4-1.4-.2-3.5-.5-6-1.2,4.2-1.1,8.2-3.2,10.8-6.8,2.5-3.5,2.2-6.4,4.8-7.6,3.1-1.4,5.9,1.6,10.8,2.8,6.6,1.7,11.5-1.2,16.8-2.8,12.6-3.8,19.7,1.7,32.8,2.4,9.1,.5,22.1-1.3,38.4-12Z"/>
</svg>