<?xml version="1.0" encoding="UTF-8"?>
<svg id="Layer_2" data-name="Layer 2" xmlns="http://www.w3.org/2000/svg" viewBox="0 0 97.93 516.04">
  <defs>
    <style>
      .cls-1 {
        fill: #3fd1ff;
      }
    </style>
  </defs>
  <g id="Layer_1-2" data-name="Layer 1">
    <path class="cls-1" d="M97.93,.03V516.03s-15.28,.01-15.29-.02c-3.11-18.97-6.07-59.86-24.84-77.07C31.82,415.12,.06,395.84,0,385.76c-.06-10.43,36.71-36.23,63.54-62.75,15.39-15.2,15.94-48.7,18.68-65.18-2.99-19.91-6.5-57.93-24.42-74.36C31.82,159.64,.06,140.37,0,130.29c-.06-10.44,36.71-36.24,63.54-62.75C79.7,51.57,79.5,15.46,82.64,.03c.01-.03,15.29-.04,15.29,0Z"/>
  </g>
</svg>