<?xml version="1.0" encoding="UTF-8"?>
<svg id="Layer_2" data-name="Layer 2" xmlns="http://www.w3.org/2000/svg" viewBox="0 0 218.47 127.06">
  <defs>
    <style>
      .cls-1 {
        fill: #00aeef;
      }
    </style>
  </defs>
  <g id="Layer_1-2" data-name="Layer 1">
    <path class="cls-1" d="M.26,127.06c-1.97-.49,6.18-47.7,68.19-85.32C127.38,5.99,198.54,.99,218.47,0c-.25,27.6-.51,55.19-.76,82.79-9.15-.62-23.21-.86-39.4,1.84-25.81,4.31-42.14,13.6-49.25,18.22,5.57-5.05,14.74-12.12,28.79-18.68,12.96-6.05,25.46-9.52,34.47-11.53-10.37-1.37-38.09-4.16-69.71,3.46-32.61,7.86-49.86,22.11-55.69,27.44,.67-4.15,3.67-17.37,21.59-28.36,24.95-15.3,58.23-13.65,62.89-13.37-30.08-.83-65.77,1.65-95.85,14.76C11.95,95.57,1.9,127.47,.26,127.06Z"/>
  </g>
</svg>